<svg xmlns="http://www.w3.org/2000/svg" width="823.97" height="137.38" viewBox="0 0 218.01 36.35"><path d="M0 36.33L15.96 0H218l-15.14 36.35L0 36.33" fill="#5f7fff"/><path d="M30.63 25.88l-13.48-5.6v-3.52l13.48-5.6v4.22l-8.2 3.15 8.2 3.17zM46 27.21V9.85h-3.47v6.94h-5.2V9.85h-3.47V27.2h3.47v-6.94h5.2v6.94zm10.25 0v-13.9h4.32V9.88H48.45v3.45h4.33v13.9zM71.16 17.2l-6.85-7.62H63.2V27.2h3.52v-9.69l4.44 4.66 4.45-4.66-.03 9.7h3.52V9.57h-1.09zm11.85-7.35V27.2h9v-3.47h-5.52V9.84zm11.32 16.03l13.48-5.6v-3.52l-13.48-5.6v4.22l8.2 3.15-8.2 3.17z" aria-label="&lt;HTML&gt;" style="fill:#303030;fill-opacity:1" font-weight="900" font-size="24.29" stroke-width=".61" fill="#303030"/><path d="M118.45 9.82h-3.5v17.4h3.5V13.28z" fill="#ff5757"/><path d="M118.45 9.82v3.48h3.09c1 0 1.6.77 1.6 1.74 0 .95-.6 1.75-1.6 1.75h-.03v3.48h.03c1 0 1.75.75 1.75 1.72s-.76 1.75-1.75 1.75h-3.09v3.47h3.38c2.82 0 5.12-2.3 5.12-5.22 0-1.36-.65-2.7-1.8-3.47 1.1-.76 1.56-2.12 1.61-3.43.07-3.06-1.85-5.27-4.93-5.27z" fill="#5ee2ff"/><path d="M133.493 23.723v3.47h5.51v-3.47z" fill="#ffd957"/><path d="M130.04 9.85V27.2h3.47V9.84z" fill="#ff8148"/><path d="M156.76 12.05l-2.62 2.62c2.77 2.97 1.52 9.19-3.77 9.19a4.961 4.961 0 01-3.82-1.59l-2.64 2.63a8.7 8.7 0 006.46 2.55c9.15 0 11.27-10.48 6.39-15.4z" fill="#b3ff80"/><path d="M150.37 9.55c-9.12 0-11.26 10.41-6.46 15.35l2.64-2.63c-2.71-3-1.44-9.14 3.82-9.14 1.65 0 2.9.62 3.77 1.54l2.62-2.62a8.7 8.7 0 00-6.4-2.5z" fill="#5ee2ff"/><path d="M168.95 23.44l-.95 1.7c-.41.73-.53.9-.87 1.48 1.02.4 2.17.64 3.5.64 1.2 0 2.74-.3 3.8-.73l-.46-3.6c-.65.35-1.84.78-3.35.78-.62 0-1.16-.11-1.67-.27z" fill="#ffd957"/><path d="M161.81 18.59c.04 3.36 1.82 6.69 5.32 8.03.34-.58.46-.75.87-1.48l.95-1.7c-2.23-.69-3.36-2.74-3.41-4.85z" fill="#ff5757"/><path d="M167 10.31c-3.5 1.42-5.23 4.87-5.19 8.28h3.73c-.05-2.17 1-4.37 3.26-5.15l-.8-1.42c-.357-.624-.733-1.25-1-1.71z" fill="#ff8148"/><path d="M167.958 11.947l.842 1.493a5.9 5.9 0 014.83.44l.42-3.57a9.544 9.544 0 00-7.05 0c.31.53.62 1.056.958 1.637z" fill="#ea68ff"/><path d="M180.68 16.77v3.64l4.61 6.8h4.3l-6.12-8.79 5.64-8.57h-4.06z" fill="#ffd957"/><path d="M177.2 9.85V27.2h3.48V9.85z" fill="#5ee2ff"/><path d="M198.04 27.1l-.91-3.41c-.21.08-.43.13-.66.15a7.8 7.8 0 01-4.96-1.39l-.44 3.64a10.86 10.86 0 005.5 1.27 6.6 6.6 0 001.47-.26z" fill="#ff5757"/><path d="M195.71 19.99c1.094.484 2.458 1.182 2.56 2.1.07.73-.44 1.32-1.14 1.6l.91 3.41a5.021 5.021 0 003.77-5.01c0-1.87-1.1-3.15-2.62-4.11l-3.48 2.01z" fill="#ffd957"/><path d="M191.32 14.87v.15c0 2.63 2 4 4.39 4.97l3.48-2.01c-.73-.47-1.53-.89-2.4-1.21-1-.34-1.85-.78-1.95-1.75l.01-.15z" fill="#ea68ff"/><path d="M196.22 9.72a5.07 5.07 0 00-4.9 5.15h3.53c0-.9.54-1.72 1.71-1.8.2 0 .57.02.93.05l.96-3.23a9 9 0 00-2.23-.17z" fill="#ff8148"/><path d="M198.45 9.89l-.96 3.23c.62.06 1.41.2 2.62.69l.44-3.36c-.85-.3-1.51-.45-2.1-.56z" fill="#b3ff80"/><path d="M121.5 20.27h.04c1 0 1.75.75 1.75 1.72s-.76 1.75-1.75 1.75h-3.09v3.47h3.38c2.82 0 5.12-2.3 5.12-5.22-.03-2.86-2.74-5.2-5.44-5.2-.02 1.15-.01 2.322-.01 3.48z" fill="#ea68ff"/><path d="M180.68 16.77v5.9c2.8-4.28 5.62-8.55 8.43-12.83h-4.06l-4.37 6.93z" fill="#b3ff80"/></svg>